<svg width="24" height="24" viewBox="0 0 24 24" fill="none" xmlns="http://www.w3.org/2000/svg">
<path fill-rule="evenodd" clip-rule="evenodd" d="M10.7985 3H13.2C13.2796 3 13.3559 3.03161 13.4121 3.08787C13.4684 3.14413 13.5 3.22044 13.5 3.3C13.5 6.012 16.437 7.7085 18.786 6.351C18.8545 6.31184 18.9357 6.30137 19.0118 6.32189C19.088 6.3424 19.153 6.39224 19.1925 6.4605L20.3955 8.5425C20.4151 8.57647 20.4279 8.61398 20.433 8.65288C20.4381 8.69178 20.4355 8.73131 20.4253 8.7692C20.4152 8.80709 20.3976 8.84261 20.3737 8.87372C20.3498 8.90483 20.32 8.93092 20.286 8.9505C17.937 10.3065 17.937 13.6965 20.286 15.054C20.3543 15.0935 20.4041 15.1585 20.4246 15.2347C20.4451 15.3108 20.4347 15.392 20.3955 15.4605L19.1925 17.5425C19.153 17.6108 19.088 17.6606 19.0118 17.6811C18.9357 17.7016 18.8545 17.6912 18.786 17.652C16.437 16.2945 13.5 17.9895 13.5 20.7C13.5 20.7793 13.4686 20.8554 13.4127 20.9116C13.3567 20.9678 13.2808 20.9996 13.2015 21H10.8C10.7606 21.0002 10.7215 20.9926 10.685 20.9776C10.6485 20.9626 10.6153 20.9405 10.5874 20.9126C10.5595 20.8847 10.5374 20.8515 10.5224 20.815C10.5074 20.7786 10.4998 20.7395 10.5 20.7C10.5 17.988 7.56301 16.293 5.21401 17.649C5.18004 17.6686 5.14253 17.6814 5.10363 17.6865C5.06473 17.6916 5.0252 17.689 4.98731 17.6788C4.94941 17.6687 4.9139 17.6511 4.88279 17.6272C4.85168 17.6033 4.82559 17.5735 4.80601 17.5395L3.60601 15.4575C3.56672 15.3892 3.55602 15.3081 3.57625 15.232C3.59648 15.1558 3.646 15.0908 3.71401 15.051C6.06301 13.6935 6.06301 10.3035 3.71401 8.946C3.64575 8.90646 3.59591 8.84151 3.57539 8.76534C3.55488 8.68917 3.56534 8.60798 3.60451 8.5395L4.80601 6.4575C4.82559 6.4235 4.85168 6.39369 4.88279 6.36979C4.9139 6.34588 4.94941 6.32834 4.98731 6.31817C5.0252 6.308 5.06473 6.3054 5.10363 6.31052C5.14253 6.31564 5.18004 6.32837 5.21401 6.348C7.56301 7.707 10.5 6.0105 10.5 3.3C10.5 3.135 10.6335 3 10.7985 3ZM8.25001 3.3C8.25001 1.89 9.39001 0.75 10.7985 0.75H13.2C14.61 0.75 15.75 1.89 15.75 3.3C15.7505 3.52345 15.8096 3.74285 15.9216 3.93623C16.0335 4.12961 16.1943 4.29018 16.3879 4.40184C16.5814 4.5135 16.8009 4.57234 17.0243 4.57245C17.2478 4.57257 17.4673 4.51396 17.661 4.4025C18.2463 4.06498 18.9416 3.97366 19.5941 4.14861C20.2467 4.32357 20.8031 4.75048 21.141 5.3355L22.344 7.4175C23.0475 8.637 22.629 10.194 21.411 10.8975C21.2173 11.0094 21.0564 11.1704 20.9445 11.3642C20.8327 11.5579 20.7738 11.7778 20.7738 12.0015C20.7738 12.2252 20.8327 12.4451 20.9445 12.6388C21.0564 12.8326 21.2173 12.9936 21.411 13.1055C21.9957 13.4437 22.4224 14.0001 22.5973 14.6525C22.7722 15.305 22.6811 16.0002 22.344 16.5855L21.141 18.6675C20.8031 19.2525 20.2467 19.6794 19.5941 19.8544C18.9416 20.0293 18.2463 19.938 17.661 19.6005C17.4673 19.489 17.2478 19.4304 17.0243 19.4305C16.8009 19.4307 16.5814 19.4895 16.3879 19.6012C16.1943 19.7128 16.0335 19.8734 15.9216 20.0668C15.8096 20.2601 15.7505 20.4796 15.75 20.703C15.75 22.1115 14.61 23.253 13.2015 23.253H10.8C10.124 23.2526 9.47575 22.9838 8.99786 22.5056C8.51996 22.0274 8.25151 21.379 8.25151 20.703C8.25106 20.4796 8.1919 20.2601 8.07995 20.0668C7.96801 19.8734 7.8072 19.7128 7.61366 19.6012C7.42011 19.4895 7.20062 19.4307 6.97717 19.4305C6.75372 19.4304 6.53417 19.489 6.34051 19.6005C6.05077 19.7678 5.7309 19.8764 5.39918 19.9201C5.06746 19.9637 4.73038 19.9416 4.40721 19.855C4.08404 19.7683 3.78111 19.6189 3.51572 19.4151C3.25033 19.2114 3.02769 18.9573 2.86051 18.6675L1.65751 16.5855C1.31999 16.0002 1.22867 15.3049 1.40362 14.6524C1.57858 13.9998 2.00548 13.4434 2.59051 13.1055C2.7839 12.9935 2.94444 12.8326 3.05604 12.6389C3.16765 12.4453 3.2264 12.2257 3.2264 12.0023C3.2264 11.7788 3.16765 11.5592 3.05604 11.3656C2.94444 11.1719 2.7839 11.011 2.59051 10.899C2.30063 10.7317 2.04655 10.5089 1.84278 10.2434C1.63901 9.97785 1.48954 9.67479 1.4029 9.3515C1.31626 9.0282 1.29416 8.69101 1.33784 8.35917C1.38153 8.02734 1.49015 7.70736 1.65751 7.4175L2.85901 5.3355C3.19692 4.75048 3.75331 4.32357 4.40587 4.14861C5.05843 3.97366 5.75375 4.06498 6.33901 4.4025C6.53267 4.51396 6.75222 4.57257 6.97567 4.57245C7.19912 4.57234 7.41861 4.5135 7.61216 4.40184C7.8057 4.29018 7.96651 4.12961 8.07845 3.93623C8.1904 3.74285 8.24956 3.52345 8.25001 3.3ZM14.25 12C14.25 12.5967 14.013 13.169 13.591 13.591C13.169 14.0129 12.5967 14.25 12 14.25C11.4033 14.25 10.831 14.0129 10.409 13.591C9.98706 13.169 9.75001 12.5967 9.75001 12C9.75001 11.4033 9.98706 10.831 10.409 10.409C10.831 9.98705 11.4033 9.75 12 9.75C12.5967 9.75 13.169 9.98705 13.591 10.409C14.013 10.831 14.25 11.4033 14.25 12ZM16.5 12C16.5 13.1935 16.0259 14.3381 15.182 15.182C14.3381 16.0259 13.1935 16.5 12 16.5C10.8065 16.5 9.66194 16.0259 8.81803 15.182C7.97411 14.3381 7.50001 13.1935 7.50001 12C7.50001 10.8065 7.97411 9.66193 8.81803 8.81802C9.66194 7.97411 10.8065 7.5 12 7.5C13.1935 7.5 14.3381 7.97411 15.182 8.81802C16.0259 9.66193 16.5 10.8065 16.5 12Z" fill="black"/>
</svg>
